<?xml version="1.0" encoding="UTF-8"?>
<svg width="62px" height="64px" viewBox="0 0 62 64" version="1.1" xmlns="http://www.w3.org/2000/svg" xmlns:xlink="http://www.w3.org/1999/xlink">
    <!-- Generator: sketchtool 41.1 (35376) - http://www.bohemiancoding.com/sketch -->
    <title>CE9675F0-7921-40A1-B460-815A52A17C0B</title>
    <desc>Created with sketchtool.</desc>
    <defs></defs>
    <g id="Symbols" stroke="none" stroke-width="1" fill="none" fill-rule="evenodd">
        <g id="icon/bell" fill="#6457EF">
            <g id="mbri-alert" transform="translate(11.000000, 9.000000)">
                <path d="M18.1346154,42.3 C17.6993846,42.3062667 17.3398462,42.6509333 17.3461538,43.0833333 L17.3461538,43.8666667 C17.3461538,45.59 18.7653846,47 20.5,47 C22.2346154,47 23.6538462,45.59 23.6538462,43.8666667 L23.6538462,43.0833333 C23.6538462,42.5616333 23.2596154,42.3 22.8653846,42.3 C22.4711538,42.3 22.0769231,42.5538 22.0769231,43.0833333 L22.0769231,43.8666667 C22.0769231,44.7487 21.3878077,45.4333333 20.5,45.4333333 C19.6121923,45.4333333 18.9230769,44.7487 18.9230769,43.8666667 L18.9230769,43.0833333 C18.9293846,42.6415333 18.5793077,42.2937333 18.1346154,42.3 Z M20.5,0 C17.8980769,0 15.7692308,2.115 15.7692308,4.7 L15.7692308,5.48333333 C15.7692308,6.50166667 17.3461538,6.51733333 17.3461538,5.48333333 L17.3461538,4.7 C17.3461538,2.961 18.7496154,1.56666667 20.5,1.56666667 C22.2503846,1.56666667 23.6538462,2.961 23.6538462,4.7 L23.6538462,5.48333333 C23.6538462,6.50793333 25.2307692,6.51733333 25.2307692,5.48333333 L25.2307692,4.7 C25.2307692,2.115 23.1019231,0 20.5,0 Z M32.3269231,4.7 C37.1113077,4.7 41,8.56653333 41,13.3166667 C41,14.3585 39.4230769,14.3585 39.4230769,13.3166667 C39.4230769,9.41566667 36.2597692,6.26666667 32.3269231,6.26666667 C31.2751154,6.26666667 31.2814231,4.7 32.3269231,4.7 Z M8.67307692,4.7 C3.89184615,4.7 0,8.56653333 0,13.3166667 C0,14.3585 1.57692308,14.3585 1.57692308,13.3166667 C1.57692308,9.41566667 4.74653846,6.26666667 8.67307692,6.26666667 C9.72646154,6.26666667 9.72173077,4.7 8.67307692,4.7 Z M20.5,7.83333333 C13.6876923,7.83333333 9.95353846,10.669 8.14007692,14.2598 C6.32661538,17.8506 6.30769231,22.0837333 6.30769231,25.0666667 C6.30769231,28.2 6.30769231,34.1799667 1.76615385,39.4392667 C1.56507684,39.6715798 1.51878954,39.9990384 1.64768265,40.2773891 C1.77657576,40.5557397 2.05698553,40.7338794 2.36538462,40.7333333 L38.6346154,40.7333333 C38.9430145,40.7338794 39.2234242,40.5557397 39.3523173,40.2773891 C39.4812105,39.9990384 39.4349232,39.6715798 39.2338462,39.4392667 C34.6923077,34.1799667 34.6923077,28.2 34.6923077,25.0666667 C34.6923077,22.0837333 34.6718077,17.8506 32.8599231,14.2598 C31.0464615,10.669 27.3123077,7.83333333 20.5,7.83333333 Z M20.5,9.4 C26.8928462,9.4 29.8621923,11.8173667 31.4485769,14.9616667 C33.0365385,18.1106667 33.1153846,22.1025333 33.1153846,25.0666667 C33.1153846,27.9681333 33.2841154,33.7883 37.1933077,39.1666667 L3.80669231,39.1666667 C7.71746154,33.7883 7.88461538,27.9681333 7.88461538,25.0666667 C7.88461538,22.1009667 7.96346154,18.1106667 9.55142308,14.9616667 C11.1378077,11.8189333 14.1087308,9.4 20.5,9.4 Z" id="Shape"></path>
            </g>
        </g>
    </g>
</svg>