<svg xmlns="http://www.w3.org/2000/svg" width="62" height="64" viewBox="0 0 62 64">
    <path fill="#6457EF" fill-rule="evenodd" d="M22.274 34.826h23.032c.458 0 .823.369.823.826a.821.821 0 0 1-.823.826H22.274a.824.824 0 0 1-.822-.826c0-.457.368-.826.822-.826zm-1.645-6.609h26.323c.457 0 .822.369.822.826a.821.821 0 0 1-.822.827H20.629a.824.824 0 0 1-.823-.827c0-.457.369-.826.823-.826zM5.823 15c-1.075 0-1.103 1.652 0 1.652h5.922c.128.572 1.053 4.643 2.159 9.477 1.18 5.165 2.388 12.094 2.642 13.04.217.817.42 1.744 1.02 2.552.595.806 1.645 1.364 3.063 1.364h26.323c1.414 0 2.467-.558 3.065-1.364.598-.81.8-1.735 1.02-2.553.436-1.64 2.665-11.473 3.109-13.138.25-.935.332-1.91.036-2.792a2.44 2.44 0 0 0-2.295-1.633H18.984c-1.074 0-1.086 1.653 0 1.653h32.903c.535 0 .602.115.735.512.132.393.126 1.113-.065 1.83-.44 1.64-2.665 11.475-3.11 13.14-.222.836-.43 1.561-.75 1.993-.319.432-.69.7-1.744.7H20.631c-1.053 0-1.425-.268-1.744-.7-.321-.43-.53-1.157-.754-1.991-.187-.704-1.447-7.818-2.624-12.98-1.18-5.163-2.303-10.12-2.303-10.12a.817.817 0 0 0-.803-.642h-6.58zM43.66 44.74c-2.259 0-4.113 1.858-4.113 4.13 0 2.271 1.854 4.13 4.113 4.13 2.264 0 4.113-1.859 4.113-4.13 0-2.272-1.847-4.13-4.113-4.13zm0 1.651a2.46 2.46 0 0 1 2.468 2.479 2.46 2.46 0 0 1-2.468 2.478c-1.37 0-2.467-1.1-2.467-2.478a2.462 2.462 0 0 1 2.467-2.479zM23.92 44.74c-2.257 0-4.113 1.859-4.113 4.13 0 2.272 1.855 4.131 4.113 4.131 2.264 0 4.113-1.859 4.113-4.13 0-2.272-1.847-4.13-4.113-4.13zm0 1.652a2.46 2.46 0 0 1 2.468 2.479 2.46 2.46 0 0 1-2.468 2.478c-1.37 0-2.467-1.1-2.467-2.478a2.462 2.462 0 0 1 2.467-2.479z"/>
</svg>
