<svg xmlns="http://www.w3.org/2000/svg" width="62" height="64" viewBox="0 0 62 64">
    <path fill="#6457EF" fill-rule="evenodd" d="M19.583 5c-1.826 0-3.59 1.008-4.755 2.396-1.166 1.38-1.661 3.043-1.661 4.937 0 1.197.427 2.41 1.045 3.438a7.41 7.41 0 0 0 1.859 2.062H7.667A3.677 3.677 0 0 0 4 21.5v7.333A3.677 3.677 0 0 0 7.667 32.5h47.666A3.677 3.677 0 0 0 59 28.833V21.5a3.677 3.677 0 0 0-3.667-3.667h-10.71A5.429 5.429 0 0 0 45.796 16a5.797 5.797 0 0 0 .312-2.886c-.16-1.1-.623-2.172-1.417-3.006-.801-.846-1.892-1.441-3.108-1.441-1.178 0-2.264.403-3.14 1.008-.867.601-1.544 1.344-2.163 2.046-1.449 1.65-2.787 3.392-4.056 5.185-1.107-2.076-2.306-4.103-3.661-6.027-1.012-1.437-2.138-2.896-3.63-4.042C23.43 5.682 21.593 5 19.583 5zm0 1.826c1.43 0 2.998.513 4.235 1.467 1.243.957 2.274 2.258 3.253 3.648 1.316 1.866 2.438 3.874 3.512 5.892H23.25c-1.04 0-2.048-.018-2.983-.176-.935-.156-1.83-.464-2.6-.935a5.714 5.714 0 0 1-1.888-1.897c-.464-.768-.779-1.599-.779-2.492 0-1.314.38-2.755 1.225-3.758.843-1.003 2.066-1.749 3.358-1.749zm22 3.674c.697 0 1.29.348 1.779.867.498.52.825 1.247.935 2.004a3.96 3.96 0 0 1-.207 1.97 3.652 3.652 0 0 1-1.165 1.563c-.513.403-1.16.673-1.846.807-.69.132-1.43.139-2.246.124h-4.902c1.173-1.644 2.383-3.384 3.722-4.902.597-.678 1.182-1.302 1.83-1.751.637-.44 1.439-.678 2.1-.678V10.5zM7.667 19.667h47.666c1.032 0 1.834.8 1.834 1.833v7.333a1.809 1.809 0 0 1-1.834 1.834H7.667a1.809 1.809 0 0 1-1.834-1.834V21.5c0-1.032.802-1.833 1.834-1.833zM28.75 21.5a.915.915 0 0 0-.917.917v3.666c0 .508.41.917.917.917a.915.915 0 0 0 .917-.917v-3.666a.915.915 0 0 0-.917-.917zm5.5 0a.915.915 0 0 0-.917.917v3.666c0 .508.41.917.917.917a.915.915 0 0 0 .917-.917v-3.666a.915.915 0 0 0-.917-.917zM10.402 34.319a.917.917 0 0 0-.902.931v21.083A3.677 3.677 0 0 0 13.167 60h36.666a3.677 3.677 0 0 0 3.667-3.667V35.25c.018-1.24-1.852-1.24-1.833 0v21.083a1.809 1.809 0 0 1-1.834 1.834H35.167V35.25a.915.915 0 0 0-.917-.917.915.915 0 0 0-.917.917v22.917h-3.666V35.25a.915.915 0 0 0-.917-.917.915.915 0 0 0-.917.917v22.917H13.167a1.809 1.809 0 0 1-1.834-1.834V35.25a.919.919 0 0 0-.931-.931z"/>
</svg>
