<svg xmlns="http://www.w3.org/2000/svg" width="62" height="64" viewBox="0 0 62 64">
    <path fill="#6457EF" fill-rule="evenodd" d="M52.94 25.6a.886.886 0 0 0-.612.274L37.2 41.324c-.076.078-.38.217-.709.217-.327 0-.616-.133-.683-.205l-7.123-7.519c-.545-.576-1.275-.763-1.973-.761-.694 0-1.42.19-1.971.75L7.828 51.052a.907.907 0 0 0 .008 1.274c.35.349.915.345 1.26-.009l16.91-17.249c.076-.08.38-.216.708-.216.328-.004.618.133.685.205l7.123 7.519c.547.576 1.277.763 1.973.761.698 0 1.425-.19 1.971-.75l15.13-15.453a.907.907 0 0 0 .192-.996.89.89 0 0 0-.847-.543l-.002.005zM51.186 22c-1.182 0-1.16 1.8 0 1.8h4.452v4.5c0 1.21 1.78 1.174 1.78 0v-5.4c0-.497-.399-.9-.89-.9h-5.342zM4.89 4a.896.896 0 0 0-.89.9v52.2c0 .497.399.9.89.9H56.53c1.204.018 1.204-1.818 0-1.8H5.781V4.9a.874.874 0 0 0-.89-.9z"/>
</svg>
