<?xml version="1.0" encoding="UTF-8"?>
<svg width="9px" height="9px" viewBox="0 0 9 9" version="1.1" xmlns="http://www.w3.org/2000/svg" xmlns:xlink="http://www.w3.org/1999/xlink">
    <!-- Generator: sketchtool 41.1 (35376) - http://www.bohemiancoding.com/sketch -->
    <title>7A51734C-8FFE-4577-BBE9-6A70E23A2F9C</title>
    <desc>Created with sketchtool.</desc>
    <defs></defs>
    <g id="Symbols" stroke="none" stroke-width="1" fill="none" fill-rule="evenodd">
        <g id="header" transform="translate(-1009.000000, -15.000000)" fill="#343346">
            <path d="M1013.50019,20.2500184 C1011.31845,20.2500184 1009.42958,21.3206395 1009.01783,22.8660089 C1008.92708,23.2068826 1009.19483,23.5425064 1009.54733,23.5552563 C1012.13519,23.648256 1014.86481,23.648256 1017.45267,23.5552563 C1017.80517,23.5425064 1018.07292,23.2068826 1017.98217,22.8660089 C1017.57042,21.3206395 1015.68155,20.2500184 1013.50019,20.2500184 Z M1015.37496,17.2499918 C1015.37496,16.0072463 1014.53533,15 1013.49996,15 C1012.46459,15 1011.62497,16.0072463 1011.62497,17.2499918 C1011.62497,18.4927373 1012.46459,19.4999836 1013.49996,19.4999836 C1014.53533,19.4999836 1015.37496,18.4927373 1015.37496,17.2499918 Z" id="Icon"></path>
        </g>
    </g>
</svg>