<svg xmlns="http://www.w3.org/2000/svg" width="62" height="64" viewBox="0 0 62 64">
    <path fill="#6457EF" fill-rule="evenodd" d="M45.967 14.533c.726 0 1.09.887.57 1.395l-1.619 1.622c-.727.761-1.896-.42-1.142-1.147l1.615-1.623a.807.807 0 0 1 .576-.245v-.002zm-27.648 0c-.726 0-1.09.887-.57 1.395l1.619 1.622c.727.761 1.903-.413 1.141-1.147l-1.615-1.623a.809.809 0 0 0-.575-.247zm6.505 40.834h13.011c.45 0 .814.364.814.816a.813.813 0 0 1-.814.817h-13.01a.813.813 0 0 1-.814-.817c0-.452.363-.816.813-.816zm0-4.9h13.011c.45 0 .814.364.814.816a.813.813 0 0 1-.814.817h-13.01a.813.813 0 0 1-.814-.817c0-.452.363-.816.813-.816zM31.33 17.8c-3.006 0-5.686 1.74-7.563 4.41-1.878 2.675-3.009 6.301-3.009 10.29 0 3.99 1.13 7.616 3.01 10.29 1.876 2.67 4.556 4.41 7.562 4.41 3.005 0 5.686-1.74 7.562-4.41 1.879-2.675 3.01-6.301 3.01-10.29 0-3.99-1.131-7.616-3.01-10.29-1.876-2.669-4.557-4.41-7.562-4.41zm0 1.633c2.382 0 4.581 1.367 6.235 3.72 1.653 2.351 2.71 5.667 2.71 9.347 0 3.678-1.057 6.994-2.71 9.348-1.068 1.519-2.37 2.62-3.796 3.214-.016-1.944-.045-3.752.236-5.248.322-1.731.989-3.07 2.643-4.173.683-.441.37-1.508-.44-1.506a.791.791 0 0 0-.45.14c-2.013 1.346-2.966 3.221-3.342 5.235-.351 1.879-.286 3.907-.273 6-.39.06-1.195.06-1.626 0 .013-2.091.078-4.12-.274-5.998-.374-2.012-1.328-3.887-3.342-5.233a.76.76 0 0 0-.45-.146c-.81 0-1.123 1.067-.44 1.506 1.655 1.104 2.321 2.442 2.643 4.173.282 1.497.25 3.306.236 5.25-1.426-.593-2.727-1.694-3.796-3.213-1.652-2.353-2.71-5.67-2.71-9.349 0-3.678 1.058-6.994 2.71-9.348 1.654-2.352 3.855-3.719 6.236-3.719zm16.264 11.434h3.252c.45 0 .814.364.814.816a.813.813 0 0 1-.814.817h-3.252a.813.813 0 0 1-.814-.817c0-.452.363-.816.814-.816zM32.143 8.817v3.266a.813.813 0 1 1-1.626 0V8.817a.813.813 0 1 1 1.626 0zm-20.33 22.05h3.253c.45 0 .813.364.813.816a.813.813 0 0 1-.813.817h-3.253a.813.813 0 0 1-.813-.817c0-.452.363-.816.813-.816z"/>
</svg>
