<svg xmlns="http://www.w3.org/2000/svg" width="62" height="64" viewBox="0 0 62 64">
    <path fill="#6457EF" fill-rule="evenodd" d="M13.973 36.254l-1.721 1.736c-.847.817.406 2.079 1.219 1.225l1.721-1.733c.561-.553.153-1.482-.618-1.482a.874.874 0 0 0-.601.254zM12.839 23.75c-.775 0-1.167.938-.61 1.48l1.725 1.736c.81.853 2.062-.409 1.215-1.225l-1.724-1.737a.821.821 0 0 0-.606-.254zm13.327.254l-1.72 1.736c-.847.817.405 2.079 1.219 1.225l1.72-1.733c.562-.553.154-1.482-.618-1.482a.874.874 0 0 0-.6.254zm-5.489-1.129v1.75a.871.871 0 1 1-1.742 0v-1.75a.871.871 0 1 1 1.742 0zm-9.58 7.875h1.742c.482 0 .87.39.87.875a.871.871 0 0 1-.87.875h-1.742a.871.871 0 0 1-.871-.875c0-.485.388-.875.87-.875zm29.195-6.073a3.781 3.781 0 0 0-1.11 1.677c-.117.359-.052.731-.061 1.102-.425-.232-1.394-.276-1.998-.113-.766.18-1.53.537-2.116 1.137-.877.893-1.108 1.645-1.046 2.64-.278-.123-.54-.286-.853-.333a3.329 3.329 0 0 0-1.516.119c-.479.15-.905.395-1.275.682a4.33 4.33 0 0 0-1.245 1.54c-.21.438-.223.928-.258 1.414l-3.909-3.565c-.498-.455-1.045-.953-1.731-1.347-.69-.39-1.498-.658-2.366-.63-.899.03-1.77.381-2.432 1.011a3.693 3.693 0 0 0-1.127 2.398c-.064.9.192 1.76.627 2.485.427.717.986 1.256 1.488 1.738L33.31 50h-3.052c-.418 0-.883 0-1.385.093a3.825 3.825 0 0 0-1.47.58c-.458.309-.84.725-1.103 1.226a3.435 3.435 0 0 0 0 3.204 3.36 3.36 0 0 0 1.105 1.225c.461.308.968.49 1.472.578.501.092.968.094 1.385.094h13.935c1.195 0 1.122-1.75 0-1.75H30.262c-.406 0-.767-.009-1.075-.065a2.171 2.171 0 0 1-.814-.311 1.67 1.67 0 0 1-.534-.592 1.707 1.707 0 0 1-.192-.782c0-.273.07-.55.192-.782.121-.233.31-.441.533-.592.226-.15.505-.255.813-.311.307-.056.669-.065 1.075-.065h5.226c.783 0 1.167-.962.602-1.505L20.568 35.37c-.492-.472-.924-.913-1.199-1.375-.273-.459-.418-.984-.383-1.458.035-.466.256-.94.587-1.255a2.015 2.015 0 0 1 1.29-.53c.466-.018.978.14 1.448.406.474.271.934.672 1.424 1.12 2.56 2.33 5.12 4.662 7.681 7 .79.717 1.955-.543 1.213-1.251l-.882-.893c-.365-.373-.693-.714-.912-1.06a2.51 2.51 0 0 1-.392-1.096c-.032-.368.04-.758.202-1.097a2.61 2.61 0 0 1 .745-.91 2.33 2.33 0 0 1 .723-.392c.24-.076.498-.098.732-.062.237.035.484.132.71.28.227.15.462.373.727.636l2.334 2.317c.826.79 2.003-.32 1.223-1.134l-.864-.98c-.427-.482-.848-.88-1.084-1.318-.231-.434-.334-.928-.278-1.372.057-.443.284-.887.613-1.211.334-.329.796-.565 1.3-.683.668-.182 1.271.14 1.7.571l1.741 1.75.871.875c.823.791 2.021-.413 1.234-1.239l-.871-.875c-.366-.364-.688-.7-.93-1.05a2.97 2.97 0 0 1-.488-1.085 2.242 2.242 0 0 1 .06-1.097c.11-.343.321-.665.591-.898.255-.22.575-.38.91-.452.33-.07.696-.059 1.045.035.345.091.697.27 1.019.508.327.238.644.551.986.896l10.36 10.461c.82.858 2.088-.412 1.232-1.237L46.631 25.754c-.349-.35-.732-.73-1.195-1.071a4.927 4.927 0 0 0-1.594-.788 4.007 4.007 0 0 0-1.857-.056 3.754 3.754 0 0 0-1.693.838zM20.677 50c0 .966-.78 1.75-1.742 1.75A1.747 1.747 0 0 1 17.194 50c0-.966.78-1.75 1.741-1.75.962 0 1.742.784 1.742 1.75zm-4.354-38.5h5.225c.483 0 .871.39.871.875a.871.871 0 0 1-.87.875h-5.226a.871.871 0 0 1-.871-.875c0-.485.388-.875.87-.875zM7.613 8C6.18 8 5 9.187 5 10.625v42c0 1.438 1.181 2.625 2.613 2.625H23.29c1.207 0 1.11-1.75 0-1.75H7.613a.852.852 0 0 1-.871-.875v-42c0-.5.373-.875.87-.875h22.646c.498 0 .871.374.871.875v15.75c-.017 1.183 1.76 1.183 1.742 0v-15.75C32.871 9.187 31.69 8 30.258 8H7.613z"/>
</svg>
