<svg xmlns="http://www.w3.org/2000/svg" width="62" height="64" viewBox="0 0 62 64">
    <path fill="#6457EF" fill-rule="evenodd" d="M5 8c-2.2 0-4 1.8-4 4v4c0 2.2 1.8 4 4 4h42c2.2 0 4-1.8 4-4v-4c0-2.2-1.8-4-4-4H5zm0 2h42c1.126 0 2 .874 2 2v4c0 1.126-.874 2-2 2H5c-1.126 0-2-.874-2-2v-4c0-1.126.874-2 2-2zm0 35v4c0 .524.476 1 1 1h13.626l-2.314 2.25c-.96.994.56 2.314 1.376 1.44l4-4c.386-.374.386-1.068 0-1.44l-4-4c-.794-.794-2.28.536-1.376 1.44L19.624 48H7v-3c0-1.33-2-1.288-2 0zm28-1c-2.2 0-4 1.8-4 4v4c0 2.2 1.8 4 4 4h24c2.2 0 4-1.8 4-4v-4c0-2.2-1.8-4-4-4H33zm0 2h24c1.126 0 2 .874 2 2v4c0 1.126-.874 2-2 2H33c-1.126 0-2-.874-2-2v-4c0-1.126.874-2 2-2zM5 26c-2.2 0-4 1.8-4 4v4c0 2.2 1.8 4 4 4h42c2.2 0 4-1.8 4-4v-4c0-2.2-1.8-4-4-4H5zm0 2h42c1.126 0 2 .874 2 2v4c0 1.126-.874 2-2 2H5c-1.126 0-2-.874-2-2v-4c0-1.126.874-2 2-2z"/>
</svg>
