<?xml version="1.0" encoding="UTF-8"?>
<svg width="12px" height="12px" viewBox="0 0 12 12" version="1.1" xmlns="http://www.w3.org/2000/svg" xmlns:xlink="http://www.w3.org/1999/xlink">
    <!-- Generator: sketchtool 41.1 (35376) - http://www.bohemiancoding.com/sketch -->
    <title>F7015E9B-257B-4BCA-9C82-B94C86907E6A</title>
    <desc>Created with sketchtool.</desc>
    <defs></defs>
    <g id="Symbols" stroke="none" stroke-width="1" fill="none" fill-rule="evenodd">
        <g id="icon/person" fill="#BCC7D2">
            <path d="M9.93752871,10.7999816 L2.0629028,10.7999816 C1.63906822,10.7999816 1.32609211,10.3817816 1.4859488,9.99718156 C2.2276593,8.21878156 3.97015839,7.19998156 5.99990952,7.19998156 C8.03027312,7.19998156 9.77277221,8.21878156 10.5144827,9.99718156 C10.6743394,10.3817816 10.3613633,10.7999816 9.93752871,10.7999816 M3.54999868,3.59998156 C3.54999868,2.27638156 4.64939617,1.19998156 5.99990952,1.19998156 C7.35103534,1.19998156 8.44982035,2.27638156 8.44982035,3.59998156 C8.44982035,4.92358156 7.35103534,5.99998156 5.99990952,5.99998156 C4.64939617,5.99998156 3.54999868,4.92358156 3.54999868,3.59998156 M11.9734046,10.5815816 C11.5281333,8.56618156 10.135359,7.07878156 8.30221323,6.40378156 C9.27360287,5.63758156 9.84014476,4.39858156 9.63190233,3.04198156 C9.39058612,1.46818156 8.05415975,0.208781564 6.44089347,0.0251815637 C4.21392452,-0.228618436 2.32504326,1.46938156 2.32504326,3.59998156 C2.32504326,4.73398156 2.86157373,5.74438156 3.69821828,6.40378156 C1.86446002,7.07878156 0.472298187,8.56618156 0.0264144148,10.5815816 C-0.135279701,11.3141816 0.467398366,11.9999816 1.23238302,11.9999816 L10.767436,11.9999816 C11.5330331,11.9999816 12.1357112,11.3141816 11.9734046,10.5815816" id="profile_round-[#1342]"></path>
        </g>
    </g>
</svg>