<svg xmlns="http://www.w3.org/2000/svg" width="62" height="64" viewBox="0 0 62 64">
    <path fill="#6457EF" fill-rule="evenodd" d="M45.276 2a.994.994 0 0 0-.9.543l-4.321 8.614-9.676 1.377c-.812.118-1.137 1.1-.547 1.663l7.483 6.7-1.874 9.46c-.137.799.714 1.407 1.442 1.029l8.384-4.468 8.429 4.47c.727.374 1.573-.232 1.44-1.027l-1.853-9.46 7.414-6.702c.59-.562.268-1.547-.547-1.664l-9.668-1.376-4.326-8.614a.997.997 0 0 0-.88-.545zm-.01 3.176l3.665 7.297a.985.985 0 0 0 .747.536l8.197 1.17-6.346 5.684a.947.947 0 0 0-.286.858l1.6 8.024-7.112-3.79c-.29-.15-.633-.15-.925 0l-7.06 3.788 1.619-8.024a.966.966 0 0 0-.285-.862l-6.416-5.683 8.193-1.168a.984.984 0 0 0 .748-.535l3.662-7.295zM34.45 37.4a2.966 2.966 0 0 0-2.95 2.95v17.7A2.966 2.966 0 0 0 34.45 61h17.7a2.966 2.966 0 0 0 2.95-2.95v-17.7a2.966 2.966 0 0 0-2.95-2.95h-17.7zm0 1.967h17.7a.96.96 0 0 1 .983.983v17.7a.96.96 0 0 1-.983.983h-17.7a.96.96 0 0 1-.983-.983v-17.7a.96.96 0 0 1 .983-.983zM4.95 7.9A2.966 2.966 0 0 0 2 10.85v17.7a2.966 2.966 0 0 0 2.95 2.95h17.7a2.966 2.966 0 0 0 2.95-2.95v-17.7a2.966 2.966 0 0 0-2.95-2.95H4.95zm0 1.967h17.7a.96.96 0 0 1 .983.983v17.7a.96.96 0 0 1-.983.983H4.95a.96.96 0 0 1-.983-.983v-17.7a.96.96 0 0 1 .983-.983zm0 27.533A2.966 2.966 0 0 0 2 40.35v17.7A2.966 2.966 0 0 0 4.95 61h17.7a2.966 2.966 0 0 0 2.95-2.95v-17.7a2.966 2.966 0 0 0-2.95-2.95H4.95zm0 1.967h17.7a.96.96 0 0 1 .983.983v17.7a.96.96 0 0 1-.983.983H4.95a.96.96 0 0 1-.983-.983v-17.7a.96.96 0 0 1 .983-.983z"/>
</svg>
