<svg xmlns="http://www.w3.org/2000/svg" width="62" height="64" viewBox="0 0 62 64">
    <path fill="#6457EF" fill-rule="evenodd" d="M36.417 31.5c-1.568 0-2.864.614-3.698 1.55-.834.938-1.219 2.146-1.219 3.336 0 1.525-1.117 2.772-1.593 3.141-.732.575-.324 1.744.61 1.746h4.916c1.546 0 2.984-.45 4.075-1.294 1.092-.845 1.825-2.13 1.825-3.593 0-1.335-.38-2.58-1.239-3.489-.865-.908-2.157-1.397-3.677-1.397zm0 1.955c1.12 0 1.797.312 2.242.781.446.47.708 1.177.708 2.15 0 .845-.374 1.517-1.062 2.053-.695.531-1.715.88-2.872.88h-2.798c.466-.783.83-1.76.83-2.933 0-.762.255-1.509.723-2.038.472-.528 1.147-.893 2.227-.893h.002zm23.175-21.48c-.248.028-.458.093-.692.175-.468.156-1.01.41-1.648.731-1.279.645-2.905 1.589-4.622 2.668-3.442 2.156-7.198 4.802-9.13 6.72-1.838 1.825-3.178 3.487-3.807 5.154-.63 1.665-.366 3.473.94 4.769 1.308 1.3 3.127 1.564 4.803.938 1.677-.625 3.349-1.958 5.186-3.784 1.927-1.921 4.592-5.654 6.765-9.069 1.086-1.712 2.036-3.33 2.685-4.599.324-.633.576-1.173.737-1.638a3.2 3.2 0 0 0 .17-.688c.025-.246.092-.64-.33-1.055-.42-.42-.811-.352-1.061-.327l.004.004zm-1.273 2.821c-.603 1.179-1.534 2.768-2.596 4.437-2.124 3.348-4.838 7.091-6.49 8.733-1.746 1.734-3.3 2.893-4.49 3.337-1.187.44-1.876.346-2.72-.489-.84-.84-.934-1.525-.491-2.705.448-1.18 1.613-2.725 3.363-4.457 1.652-1.641 5.416-4.339 8.783-6.45 1.684-1.059 3.28-1.983 4.468-2.583.264-.07.256.043.177.175l-.004.002zM6.917 17.818H40.35a.978.978 0 1 1 0 1.955H6.917a.978.978 0 1 1 0-1.955zm8.85-2.932a.98.98 0 0 1-.984.978.98.98 0 0 1-.983-.978c0-.54.44-.977.983-.977a.98.98 0 0 1 .984.977zm-3.934 0a.98.98 0 0 1-.983.978.98.98 0 0 1-.983-.978c0-.54.44-.977.983-.977a.98.98 0 0 1 .983.977zm-3.933 0a.98.98 0 0 1-.983.978.98.98 0 0 1-.984-.978c0-.54.44-.977.984-.977a.98.98 0 0 1 .983.977zM4.95 10C3.333 10 2 11.325 2 12.932v37.136C2 51.675 3.333 53 4.95 53h49.167c1.616 0 2.95-1.325 2.95-2.932V26.614c0-1.306-1.967-1.3-1.967 0v23.454c0 .56-.42.977-.983.977H4.95a.957.957 0 0 1-.983-.977V12.932c0-.56.42-.977.983-.977h49.167c1.308 0 1.292-1.955 0-1.955H4.95z"/>
</svg>
