<svg xmlns="http://www.w3.org/2000/svg" width="62" height="64" viewBox="0 0 62 64">
    <path fill="#6457EF" fill-rule="evenodd" d="M40.35 22.667c.545 0 .983.438.983.983v5.9a.981.981 0 0 1-.983.983.981.981 0 0 1-.983-.983v-5.9c0-.545.438-.983.983-.983zm-17.7 0c.545 0 .983.438.983.983v5.9a.981.981 0 0 1-.983.983.981.981 0 0 1-.983-.983v-5.9c0-.545.438-.983.983-.983zm-1.967 19.666c-.997 0-1.284 1.208-.62 1.747A17.937 17.937 0 0 0 31.5 48.233c4.15 0 8.266-1.49 11.446-4.153.952-.795-.295-2.32-1.259-1.509a16.046 16.046 0 0 1-10.18 3.698c-3.677 0-7.362-1.338-10.179-3.698a1.017 1.017 0 0 0-.645-.236v-.002zM31.5 3C15.22 3 2 16.22 2 32.5S15.22 62 31.5 62 61 48.78 61 32.5 47.78 3 31.5 3zm0 1.967c15.218 0 27.533 12.315 27.533 27.533 0 15.218-12.315 27.533-27.533 27.533-15.218 0-27.533-12.315-27.533-27.533 0-15.218 12.315-27.533 27.533-27.533z"/>
</svg>
