<?xml version="1.0" encoding="UTF-8"?>
<svg width="62px" height="64px" viewBox="0 0 62 64" version="1.1" xmlns="http://www.w3.org/2000/svg" xmlns:xlink="http://www.w3.org/1999/xlink">
    <!-- Generator: sketchtool 41.1 (35376) - http://www.bohemiancoding.com/sketch -->
    <title>C9432AA6-4BBD-4753-83C1-AB8D303E4F1B</title>
    <desc>Created with sketchtool.</desc>
    <defs></defs>
    <g id="Symbols" stroke="none" stroke-width="1" fill="none" fill-rule="evenodd">
        <g id="icon/video" fill="#6457EF">
            <g id="mbri-video-play" transform="translate(0.000000, 12.000000)">
                <path d="M56.8333333,24.6666667 C56.2608667,24.6666667 55.8,25.1250556 55.8,25.6944444 L55.8,31.8611111 C55.8,32.4305 56.2608667,32.8888889 56.8333333,32.8888889 C57.4058,32.8888889 57.8666667,32.4305 57.8666667,31.8611111 L57.8666667,25.6944444 C57.8666667,25.1250556 57.4058,24.6666667 56.8333333,24.6666667 Z M56.8333333,14.3888889 C56.2608667,14.3888889 55.8,14.8472778 55.8,15.4166667 L55.8,21.5833333 C55.8,22.1527222 56.2608667,22.6111111 56.8333333,22.6111111 C57.4058,22.6111111 57.8666667,22.1527222 57.8666667,21.5833333 L57.8666667,15.4166667 C57.8666667,14.8472778 57.4058,14.3888889 56.8333333,14.3888889 Z M60.9666667,34.9444444 L56.8333333,34.9444444 C56.2608667,34.9444444 55.8,35.4028333 55.8,35.9722222 C55.8,36.5416111 56.2608667,37 56.8333333,37 L60.9666667,37 C61.5391333,37 62,36.5416111 62,35.9722222 C62,35.4028333 61.5391333,34.9444444 60.9666667,34.9444444 Z M56.8333333,4.11111111 C56.2608667,4.11111111 55.8,4.5695 55.8,5.13888889 L55.8,11.3055556 C55.8,11.8749444 56.2608667,12.3333333 56.8333333,12.3333333 C57.4058,12.3333333 57.8666667,11.8749444 57.8666667,11.3055556 L57.8666667,5.13888889 C57.8666667,4.5695 57.4058,4.11111111 56.8333333,4.11111111 Z M60.9666667,0 L56.8333333,0 C56.2608667,0 55.8,0.458388889 55.8,1.02777778 C55.8,1.59716667 56.2608667,2.05555556 56.8333333,2.05555556 L60.9666667,2.05555556 C61.5391333,2.05555556 62,1.59716667 62,1.02777778 C62,0.458388889 61.5391333,0 60.9666667,0 Z M5.16666667,24.6666667 C5.73913333,24.6666667 6.2,25.1250556 6.2,25.6944444 L6.2,31.8611111 C6.2,32.4305 5.73913333,32.8888889 5.16666667,32.8888889 C4.5942,32.8888889 4.13333333,32.4305 4.13333333,31.8611111 L4.13333333,25.6944444 C4.13333333,25.1250556 4.5942,24.6666667 5.16666667,24.6666667 Z M5.16666667,14.3888889 C5.73913333,14.3888889 6.2,14.8472778 6.2,15.4166667 L6.2,21.5833333 C6.2,22.1527222 5.73913333,22.6111111 5.16666667,22.6111111 C4.5942,22.6111111 4.13333333,22.1527222 4.13333333,21.5833333 L4.13333333,15.4166667 C4.13333333,14.8472778 4.5942,14.3888889 5.16666667,14.3888889 Z M1.03333333,34.9444444 L5.16666667,34.9444444 C5.73913333,34.9444444 6.2,35.4028333 6.2,35.9722222 C6.2,36.5416111 5.73913333,37 5.16666667,37 L1.03333333,37 C0.460866667,37 0,36.5416111 0,35.9722222 C0,35.4028333 0.460866667,34.9444444 1.03333333,34.9444444 Z M5.16666667,4.11111111 C5.73913333,4.11111111 6.2,4.5695 6.2,5.13888889 L6.2,11.3055556 C6.2,11.8749444 5.73913333,12.3333333 5.16666667,12.3333333 C4.5942,12.3333333 4.13333333,11.8749444 4.13333333,11.3055556 L4.13333333,5.13888889 C4.13333333,4.5695 4.5942,4.11111111 5.16666667,4.11111111 Z M1.03333333,0 L5.16666667,0 C5.73913333,0 6.2,0.458388889 6.2,1.02777778 C6.2,1.59716667 5.73913333,2.05555556 5.16666667,2.05555556 L1.03333333,2.05555556 C0.460866667,2.05555556 0,1.59716667 0,1.02777778 C0,0.458388889 0.460866667,0 1.03333333,0 Z M11.3666667,0 C9.66786667,0 8.26666667,1.39366667 8.26666667,3.08333333 L8.26666667,33.9166667 C8.26666667,35.6063333 9.66786667,37 11.3666667,37 L50.6333333,37 C52.3321333,37 53.7333333,35.6063333 53.7333333,33.9166667 L53.7333333,3.08333333 C53.7333333,1.39366667 52.3321333,0 50.6333333,0 L11.3666667,0 Z M11.3666667,2.05555556 L50.6333333,2.05555556 C51.2244,2.05555556 51.6666667,2.49544444 51.6666667,3.08333333 L51.6666667,33.9166667 C51.6666667,34.5045556 51.2244,34.9444444 50.6333333,34.9444444 L11.3666667,34.9444444 C10.7756,34.9444444 10.3333333,34.5045556 10.3333333,33.9166667 L10.3333333,3.08333333 C10.3333333,2.49544444 10.7756,2.05555556 11.3666667,2.05555556 Z M26.567,8.35377778 C25.5233333,8.68883333 24.8,9.75155556 24.8,10.9191111 L24.8,26.0767778 C24.8,27.2566667 25.5316,28.3255556 26.5773333,28.6544444 C27.6313333,28.9833333 28.8155333,28.6462222 29.8344,27.8178333 L37.1958667,21.8197222 C38.4048667,20.8330556 39.2625333,19.7806111 39.2666667,18.5 C39.2708,17.2193889 38.409,16.1463889 37.1876,15.17 C35.8856,14.1298889 32.2896,11.1760556 29.8344,9.17394444 C28.8072667,8.33733333 27.6127333,8.01872222 26.5690667,8.35172222 L26.567,8.35377778 Z M28.5262,10.7711111 C30.9772667,12.765 34.5546667,15.7044444 35.8918,16.7733333 C36.8941333,17.575 37.2020667,18.1464444 37.2,18.5 C37.2,18.8535556 36.8796667,19.4147222 35.8835333,20.2266667 L28.5262,26.2247778 C27.6168667,27.1292222 26.8666667,26.6009444 26.8666667,26.0767778 L26.8666667,10.9191111 C26.8666667,9.80294444 27.8504,10.0968889 28.5262,10.7711111 L28.5262,10.7711111 Z" id="Shape"></path>
            </g>
        </g>
    </g>
</svg>