<?xml version="1.0" encoding="UTF-8"?>
<svg width="62px" height="64px" viewBox="0 0 62 64" version="1.1" xmlns="http://www.w3.org/2000/svg" xmlns:xlink="http://www.w3.org/1999/xlink">
    <!-- Generator: sketchtool 41.1 (35376) - http://www.bohemiancoding.com/sketch -->
    <title>05FCF312-63E2-4802-8A85-82315BCB5CE6</title>
    <desc>Created with sketchtool.</desc>
    <defs></defs>
    <g id="Symbols" stroke="none" stroke-width="1" fill="none" fill-rule="evenodd">
        <g id="icon/like" fill="#6457EF">
            <g id="mbri-like" transform="translate(3.000000, 6.000000)">
                <path d="M2.8,18.5714286 C1.2656,18.5714286 0,19.8305714 0,21.3571429 L0,49.2142857 C0,50.7408571 1.2656,52 2.8,52 L15.8666667,52 C17.4010667,52 18.6666667,50.7408571 18.6666667,49.2142857 L18.6666667,21.3571429 C18.6666667,19.8305714 17.4010667,18.5714286 15.8666667,18.5714286 L2.8,18.5714286 Z M2.8,20.4285714 L15.8666667,20.4285714 C16.4005333,20.4285714 16.8,20.826 16.8,21.3571429 L16.8,49.2142857 C16.8,49.7454286 16.4005333,50.1428571 15.8666667,50.1428571 L2.8,50.1428571 C2.26613333,50.1428571 1.86666667,49.7454286 1.86666667,49.2142857 L1.86666667,21.3571429 C1.86666667,20.826 2.26613333,20.4285714 2.8,20.4285714 Z M32.6666667,0 C31.9909333,0 31.3226667,0.0742857143 30.688,0.352857143 C30.0570667,0.631428571 29.4896,1.12728571 29.0901333,1.80142857 C28.2912,3.15714286 28,5.13871429 28,8.35714286 C28,14.2145714 23.7626667,18.7162857 20.9496,20.5845714 C19.9602667,21.216 20.9869333,22.8131429 21.9837333,22.1297143 C24.7706667,20.2837143 29.8666667,15.1282857 29.8666667,8.35714286 C29.8666667,5.265 30.2344,3.52857143 30.6973333,2.74857143 C30.9306667,2.353 31.1490667,2.17842857 31.444,2.05028571 C31.7333333,1.92028571 32.1346667,1.85714286 32.6666667,1.85714286 C33.5570667,1.85714286 34.0629333,2.15057143 34.5893333,3.27971429 C35.1194667,4.40885714 35.4666667,6.396 35.4666667,9.28571429 C35.4666667,14.8144286 31.9573333,20.7517143 31.9573333,20.7517143 C31.4384,21.3534286 31.8677333,22.2857143 32.6666667,22.2857143 L51.3333333,22.2857143 C52.416,22.2857143 53.06,22.5605714 53.4706667,22.9821429 C53.8813333,23.4037143 54.1333333,24.0592857 54.1333333,25.0714286 C54.1333333,26.9211429 52.6456,28.0391429 52.6456,28.0391429 C52.136,28.4105714 52.1416,29.172 52.6568,29.5397143 C52.6568,29.5397143 54.1314667,30.5982857 54.1314667,32.5 C54.1314667,34.4035714 52.6568,35.4602857 52.6568,35.4602857 C52.0912,35.8651429 52.1528,36.7194286 52.7725333,37.0388571 C52.7725333,37.0388571 54.1314667,37.6758571 54.1314667,39.4642857 C54.1314667,41.2527143 52.7725333,41.8915714 52.7725333,41.8915714 C52.1117333,42.2314286 52.0968,43.1655714 52.7464,43.5258571 C52.7464,43.5258571 54.1314667,44.2612857 54.1314667,45.9642857 C54.1314667,46.8185714 53.8253333,47.307 53.3288,47.6877143 C52.8322667,48.0665714 52.0930667,48.2857143 51.3314667,48.2857143 L21.4648,48.2857143 C20.2010667,48.2857143 20.2664,50.1428571 21.4648,50.1428571 L51.3314667,50.1428571 C52.4365333,50.1428571 53.564,49.8494286 54.4674667,49.1585714 C55.3709333,48.4714286 55.9981333,47.333 55.9981333,45.9642857 C55.9981333,44.3411429 55.2776,43.3698571 54.6056,42.7217143 C55.2813333,42.0772857 55.9981333,41.106 55.9981333,39.4642857 C55.9981333,37.7445714 55.2272,36.7807143 54.5365333,36.153 C55.2029333,35.4472857 55.9981333,34.3571429 55.9981333,32.5 C55.9981333,30.563 55.1432,29.4598571 54.4749333,28.782 C55.1394667,28.1004286 55.9981333,26.9935714 55.9981333,25.0714286 C55.9981333,23.7398571 55.6378667,22.542 54.8090667,21.6914286 C53.9802667,20.8408571 52.7557333,20.4285714 51.3314667,20.4285714 L34.3709333,20.4285714 C35.4890667,18.8555714 37.3333333,14.0028571 37.3333333,9.28571429 C37.3333333,6.25857143 37.016,4.06714286 36.2824,2.496 C35.5488,0.924857143 34.1917333,0 32.6666667,0 Z" id="Shape"></path>
            </g>
        </g>
    </g>
</svg>