<svg xmlns="http://www.w3.org/2000/svg" viewBox="0 0 393.38 106.32"><defs><style>.cls-1{fill:#fff;}</style></defs><title>logo white</title><g id="Layer_2" data-name="Layer 2"><g id="Layer_3" data-name="Layer 3"><path class="cls-1" d="M70.79,66.87,21.95,103C12,110.62.42,104.17.42,93.54L0,72.23C.22,67,3.92,64.15,8.47,64.15s8.25,2.8,8.47,8.08l.37,3.26c0,4.81,5.56,5.93,9.62,3.36L49,62.52a6.1,6.1,0,0,0,.23-10.31L26.9,35.88c-4.06-2.57-9.6-1.45-9.6,3.36l-.37,5.56a8.66,8.66,0,0,1-8.46,8A8.66,8.66,0,0,1,0,44.8L.42,21.33A13.41,13.41,0,0,1,21,9.94L69.81,46C78.17,51.34,78.64,62.32,70.79,66.87Z"/><path class="cls-1" d="M121.78,25.53a13.94,13.94,0,0,0-10.47,5.16l-1.38-4.05H94.78v62h18.7V44.54a16.9,16.9,0,0,1,6-1.53A58.53,58.53,0,0,1,128,44.09l1.89.38V26.53l-1.21-.29A32.43,32.43,0,0,0,121.78,25.53Z"/><path class="cls-1" d="M158.85,25.53c-7.5,0-13.56,2.16-18,6.42-5.66,5.39-8.52,14-8.52,25.69,0,28.77,16.42,32.1,28.77,32.1a61.44,61.44,0,0,0,18.51-3.09l1.05-.37V70.71l-2,.6c-.1,0-10,2.93-17.53,2.93-4.33,0-9.3-1.17-10.09-9.93h33.17l.14-6.65c.25-11.47-2.31-20-7.61-25.45C172.34,27.77,166.34,25.53,158.85,25.53Zm0,13.26c3.7,0,6.59,1,7,12.6H150.93C151.37,40.85,154.09,38.79,158.85,38.79Z"/><path class="cls-1" d="M218.22,25.53c-7.5,0-13.56,2.16-18,6.42-5.66,5.39-8.52,14-8.52,25.69,0,28.77,16.42,32.1,28.77,32.1a61.44,61.44,0,0,0,18.51-3.09l1.05-.37V70.71l-2,.6c-.1,0-10,2.93-17.53,2.93-4.33,0-9.3-1.17-10.09-9.93h33.17l.14-6.65c.25-11.47-2.31-20-7.61-25.45C231.71,27.77,225.71,25.53,218.22,25.53Zm0,13.26c3.7,0,6.59,1,7,12.6H210.31C210.75,40.85,213.46,38.79,218.22,38.79Z"/><path class="cls-1" d="M275,62.53c-.34,1.64-.84,4.3-1.32,7-.48-2.6-1-5.22-1.35-7l-7.82-35.87H243.23l20.12,62h20.72l20.12-62H282.87Z"/><rect class="cls-1" x="307.64" y="26.64" width="18.7" height="61.98"/><path class="cls-1" d="M317,0A10.92,10.92,0,0,0,306.2,11a10.8,10.8,0,1,0,21.59,0A10.92,10.92,0,0,0,317,0Z"/><path class="cls-1" d="M384,31.25c-4.62-3.85-10.84-5.72-19-5.72-8,0-14.4,2-19.08,6-6.21,5.31-9.36,14.09-9.36,26.08,0,21.3,9.57,32.1,28.44,32.1,8.06,0,14.22-1.84,18.84-5.63,6.37-5.22,9.6-14.13,9.6-26.47S390.21,36.46,384,31.25Zm-19,8.43c4.79,0,9.74,0,9.74,18s-6.82,17.84-9.74,17.84-9.74,0-9.74-17.84S360.83,39.68,364.94,39.68Z"/></g></g></svg>