<?xml version="1.0" encoding="UTF-8"?>
<svg width="85px" height="86px" viewBox="0 0 85 86" version="1.1" xmlns="http://www.w3.org/2000/svg" xmlns:xlink="http://www.w3.org/1999/xlink">
    <!-- Generator: sketchtool 41.1 (35376) - http://www.bohemiancoding.com/sketch -->
    <title>2FFD39FD-D4FB-41E8-A256-9679FE3995CA</title>
    <desc>Created with sketchtool.</desc>
    <defs></defs>
    <g id="Page-1" stroke="none" stroke-width="1" fill="none" fill-rule="evenodd">
        <g id="fusion" transform="translate(-241.000000, -942.000000)">
            <g id="Group-4" transform="translate(182.000000, 823.000000)">
                <g id="Sad" transform="translate(59.000000, 119.000000)">
                    <ellipse id="Sad-Oval" fill="#FFDA69" cx="42.5" cy="42.626087" rx="42.5" ry="42.626087"></ellipse>
                    <path d="M54.5764356,64.9521865 C51.5663921,61.7065635 47.3533399,59.826087 42.845233,59.826087 C38.3699656,59.826087 34.1847536,61.6791452 31.1780745,64.8835319 C30.3314367,65.7858413 30.3744038,67.2056793 31.2740442,68.0548288 C32.1736846,68.9039784 33.5893228,68.8608838 34.4359606,67.9585744 C36.6057651,65.6460919 39.6165125,64.3130435 42.845233,64.3130435 C46.0975999,64.3130435 49.1284744,65.6658604 51.3007573,68.008156 C52.1421438,68.9153931 53.5575079,68.9667521 54.4620615,68.1228695 C55.3666151,67.2789868 55.4178221,65.8594237 54.5764356,64.9521865 L54.5764356,64.9521865 Z" id="mouth" fill="#252B39"></path>
                    <path d="M74.5614035,78.5217391 C74.5614035,82.6518686 71.2231758,86 67.1052632,86 C62.9873505,86 59.6491228,82.6518686 59.6491228,78.5217391 C59.6491228,77.311299 59.9358542,76.1680272 60.4449103,75.1565217 L67.1052632,62.8173913 L73.7656161,75.1565217 C74.2746721,76.1680272 74.5614035,77.311299 74.5614035,78.5217391 Z" id="tear" fill="#548CFF"></path>
                    <path d="M20.3360206,33.2397022 C21.8560023,32.6559654 23.4940834,32.6389005 25.0018333,33.1606442 C25.9757563,33.4976617 27.0364553,32.9799279 27.3709708,32.0042533 C27.7054862,31.0285787 27.187144,29.9644315 26.213221,29.627414 C23.8836945,28.8213018 21.3426075,28.8477739 18.9965866,29.7487443 C16.4171574,30.7393533 14.3743375,32.6723468 13.2266358,35.1299164 C12.7903348,36.0641661 13.1928061,37.1773848 14.1255805,37.61636 C15.058355,38.0553353 16.1682098,37.653836 16.6045108,36.7195864 C17.3478285,35.1279229 18.6652156,33.8813614 20.3360206,33.2397022 Z M64.5963923,33.543362 C63.0764106,32.9596252 61.4383295,32.9425603 59.9305796,33.464304 C58.9566566,33.8013215 57.8959576,33.2835876 57.5614421,32.3079131 C57.2269266,31.3322385 57.7452688,30.2680913 58.7191919,29.9310738 C61.0487183,29.1249616 63.5898054,29.1514337 65.9358263,30.0524041 C68.5152555,31.0430131 70.5580754,32.9760066 71.7057771,35.4335762 C72.142078,36.3678258 71.7396067,37.4810446 70.8068323,37.9200198 C69.8740579,38.3589951 68.764203,37.9574958 68.3279021,37.0232462 C67.5845844,35.4315827 66.2671973,34.1850212 64.5963923,33.543362 Z M61.1403509,51.6 C64.0228897,51.6 66.3596491,48.9339787 66.3596491,45.6452747 C66.3596491,42.3565707 64.0228897,39.6905494 61.1403509,39.6905494 C58.2578121,39.6905494 55.9210526,42.3565707 55.9210526,45.6452747 C55.9210526,48.9339787 58.2578121,51.6 61.1403509,51.6 Z M23.8596491,51.6 C26.7421879,51.6 29.0789474,48.9339787 29.0789474,45.6452747 C29.0789474,42.3565707 26.7421879,39.6905494 23.8596491,39.6905494 C20.9771103,39.6905494 18.6403509,42.3565707 18.6403509,45.6452747 C18.6403509,48.9339787 20.9771103,51.6 23.8596491,51.6 Z" id="eyes" fill="#252B39"></path>
                </g>
            </g>
        </g>
    </g>
</svg>