<?xml version="1.0" encoding="UTF-8"?>
<svg width="62px" height="64px" viewBox="0 0 62 64" version="1.1" xmlns="http://www.w3.org/2000/svg" xmlns:xlink="http://www.w3.org/1999/xlink">
    <!-- Generator: sketchtool 41.1 (35376) - http://www.bohemiancoding.com/sketch -->
    <title>AAC6DFDF-9DDD-4CFF-8C51-62591CACCB01</title>
    <desc>Created with sketchtool.</desc>
    <defs></defs>
    <g id="Symbols" stroke="none" stroke-width="1" fill="none" fill-rule="evenodd">
        <g id="icon/slider" fill="#6457EF">
            <g id="mbri-image-slider" transform="translate(0.000000, 5.000000)">
                <path d="M40.3,14.5384615 C39.2832,14.5301538 38.4069333,15.0410769 38.0432,15.5146154 L32.3867333,22.6945385 C32.0354,23.1265385 31.2500667,22.8461538 30.8842667,22.6322308 L25.8106,19.4192308 C25.2112667,19.0246154 24.5292667,18.6923077 23.7687333,18.6923077 C22.9834,18.6923077 22.1443333,18.9290769 21.5532667,19.5936923 L14.7477333,27.3281538 C13.8280667,28.3624615 15.3677333,29.7498462 16.2894667,28.7155385 L23.0970667,20.9810769 C23.5476,20.4950769 24.2027333,20.8772308 24.6780667,21.1555385 L29.7620667,24.3789231 L29.7868667,24.3913846 C30.4192667,24.786 31.1302,24.9147692 31.8287333,24.9230769 C32.5314,24.9313846 33.2960667,24.867 33.8644,24.1753846 L39.5828667,16.9061538 C40.0313333,16.3599231 40.6864667,16.6153846 41.1204667,16.9892308 L45.7787333,20.4950769 C46.8678667,21.4857692 48.2690667,19.7162308 47.0600667,18.8750769 L42.4059333,15.3650769 C41.8541333,14.9289231 41.1535333,14.5384615 40.3,14.5384615 Z M15.5,31.1538462 L46.5,31.1538462 C47.0724667,31.1538462 47.5333333,31.617 47.5333333,32.1923077 C47.5333333,32.7676154 47.0724667,33.2307692 46.5,33.2307692 L15.5,33.2307692 C14.9275333,33.2307692 14.4666667,32.7676154 14.4666667,32.1923077 C14.4666667,31.617 14.9275333,31.1538462 15.5,31.1538462 Z M22.7333333,6.23076923 C20.46,6.23076923 18.6,8.1 18.6,10.3846154 C18.6,12.6692308 20.46,14.5384615 22.7333333,14.5384615 C25.0066667,14.5384615 26.8666667,12.6692308 26.8666667,10.3846154 C26.8666667,8.1 25.0066667,6.23076923 22.7333333,6.23076923 Z M22.7333333,8.30769231 C23.8865333,8.30769231 24.8,9.22569231 24.8,10.3846154 C24.8,11.5435385 23.8865333,12.4615385 22.7333333,12.4615385 C21.5801333,12.4615385 20.6666667,11.5435385 20.6666667,10.3846154 C20.6666667,9.22569231 21.5801333,8.30769231 22.7333333,8.30769231 Z M51.6666667,48.8076923 C51.6666667,49.3812188 51.2040276,49.8461538 50.6333333,49.8461538 C50.0626391,49.8461538 49.6,49.3812188 49.6,48.8076923 C49.6,48.2341658 50.0626391,47.7692308 50.6333333,47.7692308 C51.2040276,47.7692308 51.6666667,48.2341658 51.6666667,48.8076923 Z M12.4,48.8076923 C12.4,49.3812188 11.9373609,49.8461538 11.3666667,49.8461538 C10.7959724,49.8461538 10.3333333,49.3812188 10.3333333,48.8076923 C10.3333333,48.2341658 10.7959724,47.7692308 11.3666667,47.7692308 C11.9373609,47.7692308 12.4,48.2341658 12.4,48.8076923 Z M31,45.6923077 C28.7266667,45.6923077 26.8666667,47.5615385 26.8666667,49.8461538 C26.8666667,52.1307692 28.7266667,54 31,54 C33.2733333,54 35.1333333,52.1307692 35.1333333,49.8461538 C35.1333333,47.5615385 33.2733333,45.6923077 31,45.6923077 Z M31,47.7692308 C32.1635333,47.7692308 33.0666667,48.6768462 33.0666667,49.8461538 C33.0666667,51.0154615 32.1635333,51.9230769 31,51.9230769 C29.8364667,51.9230769 28.9333333,51.0154615 28.9333333,49.8461538 C28.9333333,48.6768462 29.8364667,47.7692308 31,47.7692308 Z M54.7666667,2.07692308 C53.3923333,2.07692308 53.4274667,4.15384615 54.7666667,4.15384615 L58.9,4.15384615 C59.4910667,4.15384615 59.9333333,4.59830769 59.9333333,5.19230769 L59.9333333,34.2692308 C59.9333333,34.8632308 59.4910667,35.3076923 58.9,35.3076923 L54.7666667,35.3076923 C53.4150667,35.3076923 53.4026667,37.3846154 54.7666667,37.3846154 L58.9,37.3846154 C60.5988,37.3846154 62,35.9764615 62,34.2692308 L62,5.19230769 C62,3.48507692 60.5988,2.07692308 58.9,2.07692308 L54.7666667,2.07692308 Z M3.1,2.07692308 C1.4012,2.07692308 0,3.48507692 0,5.19230769 L0,34.2692308 C0,35.9764615 1.4012,37.3846154 3.1,37.3846154 L7.23333333,37.3846154 C8.59733333,37.3846154 8.60766667,35.3076923 7.23333333,35.3076923 L3.1,35.3076923 C2.50893333,35.3076923 2.06666667,34.8632308 2.06666667,34.2692308 L2.06666667,5.19230769 C2.06666667,4.59830769 2.50893333,4.15384615 3.1,4.15384615 L7.23333333,4.15384615 C8.59733333,4.15384615 8.59733333,2.07692308 7.23333333,2.07692308 L3.1,2.07692308 Z M13.4333333,0 C11.7345333,0 10.3333333,1.40815385 10.3333333,3.11538462 L10.3333333,36.3461538 C10.3333333,38.0533846 11.7345333,39.4615385 13.4333333,39.4615385 L48.5666667,39.4615385 C50.2654667,39.4615385 51.6666667,38.0533846 51.6666667,36.3461538 L51.6666667,3.11538462 C51.6666667,1.40815385 50.2654667,0 48.5666667,0 L13.4333333,0 Z M13.4333333,2.07692308 L48.5666667,2.07692308 C49.1577333,2.07692308 49.6,2.52138462 49.6,3.11538462 L49.6,36.3461538 C49.6,36.9401538 49.1577333,37.3846154 48.5666667,37.3846154 L13.4333333,37.3846154 C12.8422667,37.3846154 12.4,36.9401538 12.4,36.3461538 L12.4,3.11538462 C12.4,2.52138462 12.8422667,2.07692308 13.4333333,2.07692308 Z" id="Shape"></path>
            </g>
        </g>
    </g>
</svg>