<?xml version="1.0" encoding="UTF-8"?>
<svg width="62px" height="64px" viewBox="0 0 62 64" version="1.1" xmlns="http://www.w3.org/2000/svg" xmlns:xlink="http://www.w3.org/1999/xlink">
    <!-- Generator: sketchtool 41.1 (35376) - http://www.bohemiancoding.com/sketch -->
    <title>69BA3EA5-EB97-4544-93E0-C30ADF84AC5E</title>
    <desc>Created with sketchtool.</desc>
    <defs></defs>
    <g id="Symbols" stroke="none" stroke-width="1" fill="none" fill-rule="evenodd">
        <g id="icon/timer" fill="#6457EF">
            <g id="mbri-timer" transform="translate(7.000000, 5.000000)">
                <path d="M15.1785714,19.8 C14.6875,19.8 14.2857143,20.205 14.2857143,20.7 L14.2857143,26.1 C14.2857143,27.2988 16.0714286,27.2934 16.0714286,26.1 L16.0714286,22.8636 L23.45,30.3066 C24.2892857,31.1886 25.5821429,29.8836 24.7089286,29.0376 L17.3214286,21.6 L20.5178571,21.5946 C21.7142857,21.5946 21.7428571,19.8 20.5178571,19.8 L15.1785714,19.8 Z M24.1071429,23.4 C22.9107143,23.4 22.9339286,25.2 24.1071429,25.2 C26.5839286,25.2 28.5714286,27.2034 28.5714286,29.7 C28.5714286,32.1966 26.5839286,34.2 24.1071429,34.2 C21.6303571,34.2 19.6428571,32.1966 19.6428571,29.7 C19.6428571,28.503 17.8571429,28.5246 17.8571429,29.7 C17.8571429,33.1686 20.6660714,36 24.1071429,36 C27.5482143,36 30.3571429,33.1686 30.3571429,29.7 C30.3571429,26.2314 27.5482143,23.4 24.1071429,23.4 Z M20.5357143,0 C20.0410714,0 19.6428571,0.4014 19.6428571,0.9 C19.6428571,1.3986 20.0410714,1.8 20.5357143,1.8 L23.2142857,1.8 L23.2142857,8.1 C23.2142857,8.5986 23.6125,9 24.1071429,9 C24.6017857,9 25,8.5986 25,8.1 L25,7.236 C35.0142857,7.641 43.5839286,14.7186 45.8571429,24.6348 C48.1964286,34.8444 43.2428571,45.3204 33.9,49.9176 C24.5607143,54.5166 13.3178571,52.011 6.76964286,43.8696 C0.223214286,35.7336 0.116071429,24.1236 6.51071429,15.8616 C7.24285714,14.9148 5.83214286,13.8096 5.1,14.7546 C-1.79821429,23.6718 -1.68214286,36.2196 5.38571429,45.0036 C12.4482143,53.7876 24.6071429,56.4966 34.6892857,51.5376 C44.7678571,46.575 50.125,35.2476 47.6,24.2316 C45.1375,13.5054 35.8357143,5.841 25,5.436 L25,1.8 L27.6785714,1.8 C28.1732143,1.8 28.5714286,1.3986 28.5714286,0.9 C28.5714286,0.4014 28.1732143,0 27.6785714,0 L20.5357143,0 Z" id="Shape"></path>
            </g>
        </g>
    </g>
</svg>