<?xml version="1.0" encoding="UTF-8"?>
<svg width="62px" height="64px" viewBox="0 0 62 64" version="1.1" xmlns="http://www.w3.org/2000/svg" xmlns:xlink="http://www.w3.org/1999/xlink">
    <!-- Generator: sketchtool 41.1 (35376) - http://www.bohemiancoding.com/sketch -->
    <title>215666DC-FCAF-413D-B14E-1EB5A2679FD4</title>
    <desc>Created with sketchtool.</desc>
    <defs></defs>
    <g id="Symbols" stroke="none" stroke-width="1" fill="none" fill-rule="evenodd">
        <g id="icon/wand" fill="#6457EF">
            <path d="M42.3059435,38.6717218 L44.1539429,42.3751873 C44.6766094,43.551187 46.4200756,42.6794539 45.8022091,41.5538542 L43.9542097,37.848522 C43.8048764,37.5349221 43.4800765,37.3370555 43.1328766,37.3351888 C42.4272768,37.3277222 41.9867436,38.0482553 42.3059435,38.6717218 Z M15.1142183,13.0666628 C14.2182185,13.0666628 13.807552,14.4143957 14.6923517,14.8325289 L18.4107506,16.6693284 C19.5419503,17.2853282 20.4174167,15.5493287 19.2376837,15.0266622 L15.5174182,13.1879961 C15.3811515,13.1170627 15.2691516,13.0666628 15.1142183,13.0666628 Z M58.9995385,19.5999941 C58.9995385,20.1170607 58.5832719,20.5333272 58.0662054,20.5333272 L54.3328732,20.5333272 C53.8158067,20.5333272 53.3995402,20.1170607 53.3995402,19.5999941 C53.3995402,19.0829276 53.8158067,18.6666611 54.3328732,18.6666611 L58.0662054,18.6666611 C58.5832719,18.6666611 58.9995385,19.0829276 58.9995385,19.5999941 Z M35.6662121,0 C36.1832786,0 36.5995452,0.416266542 36.5995452,0.933333054 L36.5995452,4.66666527 C36.5995452,5.18373178 36.1832786,5.59999833 35.6662121,5.59999833 C35.1491456,5.59999833 34.7328791,5.18373178 34.7328791,4.66666527 L34.7328791,0.933333054 C34.7328791,0.416266542 35.1491456,0 35.6662121,0 Z M24.6622154,7.70933103 C24.1675489,7.99493094 23.9118156,8.47466413 23.7736824,8.93199733 C23.6336824,9.38746386 23.5870157,9.86533038 23.5814157,10.3823969 C23.5683491,11.4165299 23.7158157,12.6037296 23.8838157,13.8058625 C24.0518156,15.0079955 24.2459489,16.2194618 24.3504822,17.2031949 C24.5371488,18.9839943 24.0051489,19.4693275 22.9504826,20.3690606 C22.1795495,21.0298604 21.1099498,21.6887935 20.0982168,22.40746 C19.0864838,23.1242598 18.0971507,23.8522595 17.3411509,24.576526 C16.9640844,24.9386592 16.6430178,25.2970591 16.4022179,25.705859 C16.1595513,26.1165255 15.9728847,26.633592 16.1091513,27.1991919 C16.2454179,27.7666584 16.6374178,28.1418583 17.0350177,28.4031915 C17.4363509,28.6645248 17.8880841,28.8511914 18.3902173,29.015458 C19.3944837,29.3439912 20.61155,29.5754578 21.8472829,29.7919911 C23.0830159,30.004791 24.3355489,30.1970576 25.3435485,30.4135909 C27.1206147,30.7962575 27.5088812,31.3599906 28.0688811,32.6853236 C28.455281,33.59999 28.8024808,34.7815896 29.1982141,35.9333226 C29.5939473,37.0850556 30.0008805,38.2143886 30.4862137,39.134655 C30.7288803,39.5938548 30.9827469,40.006388 31.3075468,40.3517213 C31.63608,40.6989212 32.0766132,41.0125211 32.6440797,41.0610544 C33.2134129,41.107721 33.6931461,40.8706545 34.0739459,40.5850545 C34.4566125,40.2994546 34.7832791,39.9410547 35.1006123,39.5285215 C35.7408788,38.7034551 36.3456786,37.6581221 36.9411451,36.5903891 C37.5347449,35.5207894 38.1171447,34.4343897 38.6360779,33.57759 C39.401411,32.0282571 40.3347441,31.8863905 41.7347437,31.7855905 C42.7651433,31.7426572 44.030743,31.7613238 45.2888759,31.7557238 C46.5451422,31.7482572 47.7846085,31.7183905 48.8355415,31.5615906 C49.358208,31.4831906 49.8360746,31.374924 50.2728744,31.1882573 C50.711541,30.9959907 51.1595408,30.6973242 51.3928741,30.1653243 C51.6262074,29.6333245 51.5366074,29.0901246 51.3704741,28.6458581 C51.2024742,28.1978582 50.9486076,27.7871917 50.6424743,27.3690585 C50.0264745,26.5290587 49.1864748,25.6517257 48.3147417,24.7743926 C47.4467419,23.9007929 46.5488755,23.0327931 45.8656757,22.2917267 C44.6112761,20.9906604 44.6896761,20.6303938 45.1563426,19.2490609 C45.4923425,18.2970612 45.9888757,17.1397282 46.4592756,15.9823952 C46.9334088,14.8287956 47.3832753,13.6826626 47.6278086,12.6597295 C47.7510085,12.1519964 47.8275418,11.6741298 47.7995418,11.19253 C47.7734085,10.7109301 47.6166086,10.158397 47.161142,9.77759708 C46.7075422,9.39679719 46.1755423,9.32959721 45.6864758,9.34453054 C45.1955426,9.3575972 44.6971428,9.46026384 44.1558096,9.60959713 C43.0843432,9.90826371 41.8672769,10.4085302 40.6464773,10.9349301 C39.4256777,11.4575966 38.1974114,12.0959964 37.1838117,12.4973296 C35.5710122,13.1805294 34.7310124,12.9546628 33.4318128,12.2023964 C32.5731464,11.6517299 31.5595467,10.7090635 30.5384803,9.99973034 C29.517414,9.29413056 28.5038143,8.50266413 27.5592812,8.0359976 C27.0870147,7.80079767 26.6352815,7.61786439 26.1667483,7.52453108 C25.6944818,7.42933111 25.1587486,7.41999778 24.6622154,7.70933103 Z M29.4744806,11.5359966 C30.473147,12.226663 31.4942134,13.1786627 32.4238131,13.7759959 C33.3515462,14.367729 34.0944793,14.8623956 35.018479,14.9407955 C35.9480787,15.0191955 36.7862118,14.6607956 37.8707448,14.2314624 C38.9534111,13.8021292 40.1854108,13.1674627 41.3856771,12.6503962 C42.5803434,12.1351964 43.756343,11.6610632 44.6579428,11.4071966 C45.8246091,11.0226634 45.9347424,11.5303966 45.8115424,12.2285297 C45.6155425,13.0461294 45.1955426,14.1455958 44.7288761,15.2786621 C44.2696762,16.4098618 43.767543,17.5802614 43.3979432,18.6199944 C43.0283433,19.6653275 42.68861,20.2495939 42.9219433,21.2146603 C43.1403432,22.1293267 43.7544764,22.7546599 44.4974095,23.5573263 C45.2366093,24.3599927 46.1400757,25.2317258 46.9875421,26.0903922 C47.8387418,26.9490586 48.6395416,27.7946584 49.1342081,28.4741248 C49.9107412,29.4559912 48.9587415,29.6426578 48.5555416,29.7173245 C47.6968752,29.8479911 46.5096756,29.8815911 45.2776759,29.8890577 C44.0456763,29.8946577 42.7707433,29.8759911 41.6563437,29.9207911 C40.5456773,29.9637244 39.6552776,29.976791 38.8507445,30.4434576 C38.0480781,30.9101241 37.6000782,31.6754572 37.0400784,32.6087903 C36.4744786,33.5365233 35.8920787,34.634123 35.3115456,35.679456 C34.7272791,36.724789 34.1392793,37.7197221 33.6240794,38.3861219 C32.866213,39.1981216 32.5694131,39.0469217 32.1400799,38.2685219 C31.75368,37.5293221 31.3523468,36.4522558 30.9640802,35.3266561 C30.5776803,34.2010564 30.2024804,33.0175901 29.8123472,32.0077238 C29.4240807,30.9997241 29.1216808,30.172791 28.4086143,29.5735912 C27.6955478,28.976258 26.8219481,28.8138581 25.7355484,28.5842581 C24.6472821,28.3565249 23.3835491,28.1623916 22.1739495,27.9495916 C20.9606165,27.7386584 19.8032835,27.4866585 18.9819505,27.2365252 C17.7368842,26.857592 18.2875507,26.2509255 18.6459506,25.9205256 C19.2619504,25.3418591 20.1952834,24.632526 21.1846165,23.9287928 C22.1739495,23.2269264 23.2192825,22.5157266 24.0966156,21.8474601 C24.9683487,21.1791937 25.6832818,20.6714605 26.0640817,19.8090607 C26.4411482,18.9503943 26.3254149,18.0823946 26.2171483,17.0090616 C26.1051483,15.9375952 25.905415,14.7205289 25.7392818,13.546396 C25.5712818,12.3703963 25.4406152,11.23173 25.4536818,10.4066636 C25.4032819,9.56666381 25.8867484,9.33146388 26.7304815,9.70666377 C27.4995479,10.0893303 28.4739476,10.8453301 29.4744806,11.5359966 Z M21.9592829,32.0133238 L4.19422154,49.7503851 C2.52355537,51.417318 2.74568864,53.7338506 3.99822159,54.9957169 C5.25262122,56.2538499 7.56915386,56.4797165 9.24355336,54.8034503 L26.9582147,37.0887889 C27.8766145,36.2077225 26.4915482,34.8823896 25.6403485,35.7671893 L7.92568709,53.4818507 C6.84302074,54.564517 5.92835435,54.2845171 5.3198212,53.675984 C4.71315471,53.0637175 4.44248813,52.1341178 5.51022114,51.0682514 L23.2771492,33.3293234 C23.8838157,32.7357235 23.4320825,31.7295905 22.5976827,31.7295905 C22.3568828,31.7407905 22.1272828,31.8415905 21.9592829,32.0133238 Z" id="Shape"></path>
        </g>
    </g>
</svg>